<?xml version="1.0" standalone="no"?>
<!DOCTYPE svg PUBLIC "-//W3C//DTD SVG 20010904//EN"
 "http://www.w3.org/TR/2001/REC-SVG-20010904/DTD/svg10.dtd">
<svg version="1.0" xmlns="http://www.w3.org/2000/svg"
 width="900.000000pt" height="500.000000pt" viewBox="0 0 900.000000 500.000000"
 preserveAspectRatio="xMidYMid meet">

<g transform="translate(0.000000,500.000000) scale(0.100000,-0.100000)"
fill="#000000" stroke="none">
<path d="M3616 3545 c-103 -37 -165 -133 -216 -331 -46 -176 -67 -549 -51
-889 4 -81 1 -100 -28 -190 -18 -55 -57 -151 -87 -213 -90 -187 -180 -258
-232 -184 -52 73 -78 294 -67 569 l6 172 -25 26 c-22 22 -34 25 -94 25 -40 0
-75 -5 -86 -13 -28 -20 -45 -116 -56 -307 -12 -227 -29 -289 -99 -378 -109
-137 -207 -148 -240 -27 -14 53 -14 216 1 393 14 168 6 218 -45 270 -35 36
-84 54 -217 77 -122 22 -144 31 -185 81 -46 56 -81 74 -145 74 -41 0 -56 -5
-75 -25 -24 -23 -25 -28 -25 -172 0 -334 -115 -711 -235 -768 -70 -33 -137 20
-189 150 l-23 56 49 132 c137 369 196 666 185 942 -8 213 -55 359 -148 460
-51 55 -93 75 -161 75 -244 0 -363 -256 -344 -745 3 -93 9 -199 13 -234 6 -62
6 -63 -15 -52 -11 6 -57 11 -100 11 -284 0 -492 -225 -492 -530 0 -163 45
-282 147 -390 99 -105 204 -150 353 -150 138 0 243 44 338 141 l55 57 42 -57
c55 -74 80 -96 139 -122 123 -54 279 22 390 189 90 136 160 330 221 613 l16
77 80 -18 c44 -9 88 -25 97 -34 15 -14 18 -50 24 -249 7 -249 18 -327 63 -425
53 -115 127 -165 245 -166 65 -1 82 3 130 29 30 16 91 65 134 108 43 42 80 76
81 75 1 -2 10 -18 20 -37 30 -60 102 -127 167 -156 51 -23 70 -27 119 -22 32
3 80 15 106 28 96 46 201 179 264 332 l23 59 13 -48 c21 -84 80 -188 139 -249
126 -128 300 -156 470 -76 128 60 231 206 271 383 l18 78 50 15 c27 8 71 28
97 44 l46 30 13 -52 c72 -302 224 -505 401 -536 197 -34 386 73 477 271 22 46
45 109 52 140 l12 58 63 29 c35 17 80 42 99 57 33 25 35 25 35 6 0 -43 52
-201 96 -290 52 -107 136 -203 211 -244 181 -98 422 -28 546 160 54 79 93 176
103 251 6 45 10 52 33 57 14 3 52 11 84 19 53 12 59 12 63 -3 68 -226 193
-405 335 -482 62 -34 67 -35 174 -35 103 0 114 2 176 31 37 18 90 48 120 68
l53 35 30 -20 c101 -66 214 -100 362 -106 196 -9 333 34 483 152 91 71 225
243 237 303 8 38 -22 107 -66 150 -49 49 -67 41 -117 -51 -105 -196 -236 -308
-401 -342 -83 -18 -208 -7 -278 25 l-46 20 60 40 c138 92 263 267 292 407 30
141 -8 285 -92 357 -109 94 -299 94 -443 1 -93 -60 -148 -135 -192 -262 -25
-71 -27 -91 -27 -218 0 -126 2 -148 26 -215 l27 -75 -22 -17 c-73 -59 -171
-81 -240 -54 -91 34 -187 171 -236 333 l-19 61 42 49 c177 203 300 522 321
833 3 52 8 110 11 127 2 18 -1 75 -6 127 -22 212 -100 310 -263 331 -202 27
-352 -191 -397 -577 -23 -190 -3 -587 36 -743 5 -22 -24 -37 -97 -50 -35 -7
-36 -6 -63 49 -52 106 -214 236 -294 236 -63 0 -107 -80 -100 -179 8 -110 97
-245 189 -286 40 -19 41 -20 35 -59 -9 -58 -61 -165 -99 -204 -51 -54 -101
-75 -166 -70 -101 7 -181 88 -224 223 -18 58 -22 92 -21 205 l0 135 57 121
c171 368 267 835 211 1025 -20 68 -90 141 -149 158 -210 58 -347 -127 -399
-539 -20 -159 -28 -420 -18 -575 8 -120 7 -132 -11 -158 -16 -24 -102 -77
-124 -77 -4 0 -17 21 -27 46 -47 114 -212 239 -306 232 -64 -5 -85 -38 -85
-131 0 -62 5 -82 33 -139 38 -77 118 -170 162 -188 16 -7 30 -17 30 -22 0 -5
-11 -43 -26 -86 -46 -141 -131 -223 -231 -223 -62 -1 -92 12 -143 57 -84 76
-123 197 -123 376 l0 117 63 138 c116 256 196 538 220 782 17 176 -3 271 -72
340 -49 48 -93 65 -168 65 -158 0 -259 -161 -316 -506 -13 -79 -18 -178 -19
-430 -3 -364 0 -349 -76 -392 -56 -33 -79 -33 -79 -3 0 36 -57 143 -92 172
-17 14 -52 36 -77 49 -119 60 -197 35 -222 -70 -23 -101 58 -278 162 -349 39
-28 41 -31 35 -70 -11 -65 -64 -169 -111 -215 -104 -102 -251 -76 -333 60 -54
90 -67 148 -67 300 l0 135 57 126 c146 322 237 695 225 919 -5 101 -20 148
-63 199 -53 64 -162 94 -238 66z m3556 -242 c25 -41 40 -164 33 -258 -18 -240
-93 -482 -202 -653 -47 -75 -46 -77 -64 97 -17 161 -6 488 19 606 44 205 154
312 214 208z m-5988 -44 c55 -138 60 -453 10 -699 -19 -95 -86 -292 -99 -292
-14 1 -53 123 -82 262 -22 107 -26 151 -26 305 -1 230 22 356 80 433 48 64 89
60 117 -9z m2517 35 c17 -21 15 -154 -6 -274 -33 -194 -121 -490 -146 -490
-12 0 -12 313 1 441 23 220 66 332 131 338 4 1 12 -6 20 -15z m1156 -15 c7
-13 13 -46 13 -73 0 -129 -68 -445 -131 -607 l-33 -84 -9 50 c-11 68 0 368 18
485 20 132 42 198 76 232 33 33 48 32 66 -3z m1143 0 c16 -29 13 -163 -5 -272
-35 -197 -121 -487 -146 -487 -13 0 -11 330 2 448 23 218 66 326 131 331 4 1
12 -8 18 -20z m1990 -904 c40 -21 50 -43 50 -113 0 -79 -43 -164 -124 -247
-59 -59 -141 -125 -157 -125 -14 0 -40 95 -46 166 -11 136 54 271 151 315 50
23 88 24 126 4z m-7214 -66 c48 -15 72 -48 98 -137 14 -45 41 -122 61 -170 42
-99 43 -117 15 -173 -56 -108 -152 -170 -267 -170 -93 0 -141 21 -203 88 -137
150 -114 424 46 536 62 43 160 54 250 26z"/>
<path d="M2762 3058 c-44 -15 -98 -77 -112 -129 -41 -152 138 -275 272 -186
40 27 78 98 78 146 0 51 -37 119 -79 147 -43 28 -112 38 -159 22z"/>
</g>
</svg>
